<mxfile host="app.diagrams.net" agent="Mozilla/5.0 (Windows NT 10.0; Win64; x64) AppleWebKit/537.36 (KHTML, like Gecko) Chrome/133.0.0.0 Safari/537.36" version="26.1.0">
  <diagram name="Page-1" id="2YBvvXClWsGukQMizWep">
    <mxGraphModel grid="1" page="1" gridSize="10" guides="1" tooltips="1" connect="1" arrows="1" fold="1" pageScale="1" pageWidth="850" pageHeight="1100" math="0" shadow="0">
      <root>
        <mxCell id="0" />
        <mxCell id="1" parent="0" />
        <mxCell id="eHNHMJzHXt_tSUFujhMh-4" value="Cliente" style="shape=umlLifeline;perimeter=lifelinePerimeter;whiteSpace=wrap;html=1;container=1;dropTarget=0;collapsible=0;recursiveResize=0;outlineConnect=0;portConstraint=eastwest;newEdgeStyle={&quot;curved&quot;:0,&quot;rounded&quot;:0};participant=umlActor;labelPosition=center;verticalLabelPosition=top;align=center;verticalAlign=bottom;" vertex="1" parent="1">
          <mxGeometry x="70" y="90" width="20" height="550" as="geometry" />
        </mxCell>
        <mxCell id="eHNHMJzHXt_tSUFujhMh-5" value="Administrador de sistema" style="shape=umlLifeline;perimeter=lifelinePerimeter;whiteSpace=wrap;html=1;container=1;dropTarget=0;collapsible=0;recursiveResize=0;outlineConnect=0;portConstraint=eastwest;newEdgeStyle={&quot;curved&quot;:0,&quot;rounded&quot;:0};participant=umlActor;labelPosition=center;verticalLabelPosition=top;align=center;verticalAlign=bottom;" vertex="1" parent="1">
          <mxGeometry x="360" y="100" width="20" height="540" as="geometry" />
        </mxCell>
        <mxCell id="eHNHMJzHXt_tSUFujhMh-6" value="Sistema" style="shape=umlLifeline;perimeter=lifelinePerimeter;whiteSpace=wrap;html=1;container=1;dropTarget=0;collapsible=0;recursiveResize=0;outlineConnect=0;portConstraint=eastwest;newEdgeStyle={&quot;curved&quot;:0,&quot;rounded&quot;:0};" vertex="1" parent="1">
          <mxGeometry x="560" y="100" width="100" height="540" as="geometry" />
        </mxCell>
        <mxCell id="hhBSD3JsdPOj1meNqfED-2" value="" style="html=1;points=[[0,0,0,0,5],[0,1,0,0,-5],[1,0,0,0,5],[1,1,0,0,-5]];perimeter=orthogonalPerimeter;outlineConnect=0;targetShapes=umlLifeline;portConstraint=eastwest;newEdgeStyle={&quot;curved&quot;:0,&quot;rounded&quot;:0};" vertex="1" parent="eHNHMJzHXt_tSUFujhMh-6">
          <mxGeometry x="45" y="130" width="10" height="20" as="geometry" />
        </mxCell>
        <mxCell id="hhBSD3JsdPOj1meNqfED-3" value="Verifica credenciales y tipo de usuario&lt;div&gt;&lt;br&gt;&lt;/div&gt;" style="html=1;align=left;spacingLeft=2;endArrow=block;rounded=0;edgeStyle=orthogonalEdgeStyle;curved=0;rounded=0;" edge="1" parent="eHNHMJzHXt_tSUFujhMh-6" target="hhBSD3JsdPOj1meNqfED-2">
          <mxGeometry x="-0.0595" y="5" relative="1" as="geometry">
            <mxPoint x="50" y="100" as="sourcePoint" />
            <Array as="points">
              <mxPoint x="80" y="100" />
              <mxPoint x="80" y="130" />
            </Array>
            <mxPoint as="offset" />
          </mxGeometry>
        </mxCell>
        <mxCell id="hhBSD3JsdPOj1meNqfED-5" value="" style="html=1;points=[[0,0,0,0,5],[0,1,0,0,-5],[1,0,0,0,5],[1,1,0,0,-5]];perimeter=orthogonalPerimeter;outlineConnect=0;targetShapes=umlLifeline;portConstraint=eastwest;newEdgeStyle={&quot;curved&quot;:0,&quot;rounded&quot;:0};" vertex="1" parent="eHNHMJzHXt_tSUFujhMh-6">
          <mxGeometry x="45" y="70" width="10" height="20" as="geometry" />
        </mxCell>
        <mxCell id="eHNHMJzHXt_tSUFujhMh-7" value="Usuario" style="shape=umlLifeline;perimeter=lifelinePerimeter;whiteSpace=wrap;html=1;container=1;dropTarget=0;collapsible=0;recursiveResize=0;outlineConnect=0;portConstraint=eastwest;newEdgeStyle={&quot;curved&quot;:0,&quot;rounded&quot;:0};" vertex="1" parent="1">
          <mxGeometry x="790" y="100" width="100" height="540" as="geometry" />
        </mxCell>
        <mxCell id="eHNHMJzHXt_tSUFujhMh-8" value="Inicia sesiÃ³n" style="html=1;verticalAlign=bottom;endArrow=block;curved=0;rounded=0;" edge="1" parent="1" target="eHNHMJzHXt_tSUFujhMh-6">
          <mxGeometry x="-0.8489" width="80" relative="1" as="geometry">
            <mxPoint x="80" y="170" as="sourcePoint" />
            <mxPoint x="580" y="170" as="targetPoint" />
            <mxPoint as="offset" />
          </mxGeometry>
        </mxCell>
        <mxCell id="eHNHMJzHXt_tSUFujhMh-11" value="alt" style="shape=umlFrame;whiteSpace=wrap;html=1;pointerEvents=0;" vertex="1" parent="1">
          <mxGeometry x="50" y="270" width="590" height="210" as="geometry" />
        </mxCell>
        <mxCell id="eHNHMJzHXt_tSUFujhMh-12" value="[Usuario administrador]" style="text;align=center;fontStyle=1;verticalAlign=middle;spacingLeft=3;spacingRight=3;strokeColor=none;rotatable=0;points=[[0,0.5],[1,0.5]];portConstraint=eastwest;html=1;" vertex="1" parent="1">
          <mxGeometry x="150" y="270" width="80" height="26" as="geometry" />
        </mxCell>
        <mxCell id="eHNHMJzHXt_tSUFujhMh-13" value="Accede a funciones de gestion" style="html=1;verticalAlign=bottom;endArrow=open;dashed=1;endSize=8;curved=0;rounded=0;" edge="1" parent="1">
          <mxGeometry x="0.2458" relative="1" as="geometry">
            <mxPoint x="609.5" y="310" as="sourcePoint" />
            <mxPoint x="369.5" y="310" as="targetPoint" />
            <mxPoint as="offset" />
          </mxGeometry>
        </mxCell>
        <mxCell id="eHNHMJzHXt_tSUFujhMh-14" value="Gestiona catalogo, pedidos y clientes" style="html=1;verticalAlign=bottom;endArrow=block;curved=0;rounded=0;" edge="1" parent="1" source="eHNHMJzHXt_tSUFujhMh-30">
          <mxGeometry x="-0.1625" width="80" relative="1" as="geometry">
            <mxPoint x="369.5" y="340" as="sourcePoint" />
            <mxPoint x="609.5" y="340" as="targetPoint" />
            <mxPoint as="offset" />
          </mxGeometry>
        </mxCell>
        <mxCell id="eHNHMJzHXt_tSUFujhMh-15" value="" style="endArrow=none;dashed=1;html=1;rounded=0;exitX=0;exitY=0.405;exitDx=0;exitDy=0;exitPerimeter=0;entryX=1;entryY=0.4;entryDx=0;entryDy=0;entryPerimeter=0;" edge="1" parent="1">
          <mxGeometry width="50" height="50" relative="1" as="geometry">
            <mxPoint x="50" y="363.5" as="sourcePoint" />
            <mxPoint x="640" y="362.5" as="targetPoint" />
          </mxGeometry>
        </mxCell>
        <mxCell id="eHNHMJzHXt_tSUFujhMh-16" value="Accede a funciones de cliente" style="html=1;verticalAlign=bottom;endArrow=open;dashed=1;endSize=8;curved=0;rounded=0;" edge="1" parent="1">
          <mxGeometry x="0.6604" relative="1" as="geometry">
            <mxPoint x="610" y="390" as="sourcePoint" />
            <mxPoint x="80" y="390" as="targetPoint" />
            <mxPoint as="offset" />
          </mxGeometry>
        </mxCell>
        <mxCell id="eHNHMJzHXt_tSUFujhMh-17" value="Visualiza catalogo, agrega productos al carrito y realiza compras" style="html=1;verticalAlign=bottom;endArrow=block;curved=0;rounded=0;" edge="1" parent="1">
          <mxGeometry x="-0.3962" width="80" relative="1" as="geometry">
            <mxPoint x="80" y="429.5" as="sourcePoint" />
            <mxPoint x="610" y="429.5" as="targetPoint" />
            <mxPoint as="offset" />
          </mxGeometry>
        </mxCell>
        <mxCell id="eHNHMJzHXt_tSUFujhMh-18" value="alt" style="shape=umlFrame;whiteSpace=wrap;html=1;pointerEvents=0;" vertex="1" parent="1">
          <mxGeometry x="580" y="510" width="300" height="100" as="geometry" />
        </mxCell>
        <mxCell id="eHNHMJzHXt_tSUFujhMh-19" value="[Usuario cliente]" style="text;align=center;fontStyle=1;verticalAlign=middle;spacingLeft=3;spacingRight=3;strokeColor=none;rotatable=0;points=[[0,0.5],[1,0.5]];portConstraint=eastwest;html=1;" vertex="1" parent="1">
          <mxGeometry x="60" y="350" width="80" height="26" as="geometry" />
        </mxCell>
        <mxCell id="eHNHMJzHXt_tSUFujhMh-22" value="Muestra mensaje de error" style="html=1;verticalAlign=bottom;endArrow=open;dashed=1;endSize=8;curved=0;rounded=0;" edge="1" parent="1" target="eHNHMJzHXt_tSUFujhMh-7">
          <mxGeometry x="-0.39" relative="1" as="geometry">
            <mxPoint x="610" y="560" as="sourcePoint" />
            <mxPoint x="739.5" y="560" as="targetPoint" />
            <mxPoint as="offset" />
          </mxGeometry>
        </mxCell>
        <mxCell id="eHNHMJzHXt_tSUFujhMh-23" value="Redirige a funciones permitidas" style="html=1;verticalAlign=bottom;endArrow=open;dashed=1;endSize=8;curved=0;rounded=0;" edge="1" parent="1" target="eHNHMJzHXt_tSUFujhMh-7">
          <mxGeometry x="-0.0698" relative="1" as="geometry">
            <mxPoint x="660" y="600" as="sourcePoint" />
            <mxPoint x="790" y="600" as="targetPoint" />
            <Array as="points">
              <mxPoint x="610" y="600" />
              <mxPoint x="660" y="600" />
            </Array>
            <mxPoint as="offset" />
          </mxGeometry>
        </mxCell>
        <mxCell id="eHNHMJzHXt_tSUFujhMh-24" value="[Acceso a funcion restringida]" style="text;align=center;fontStyle=1;verticalAlign=middle;spacingLeft=3;spacingRight=3;strokeColor=none;rotatable=0;points=[[0,0.5],[1,0.5]];portConstraint=eastwest;html=1;" vertex="1" parent="1">
          <mxGeometry x="690" y="510" width="80" height="26" as="geometry" />
        </mxCell>
        <mxCell id="eHNHMJzHXt_tSUFujhMh-25" value="Sistema" style="html=1;whiteSpace=wrap;" vertex="1" parent="1">
          <mxGeometry x="555" y="640" width="110" height="40" as="geometry" />
        </mxCell>
        <mxCell id="eHNHMJzHXt_tSUFujhMh-26" value="Usuario" style="html=1;whiteSpace=wrap;" vertex="1" parent="1">
          <mxGeometry x="785" y="640" width="110" height="40" as="geometry" />
        </mxCell>
        <mxCell id="eHNHMJzHXt_tSUFujhMh-28" value="Cliente" style="shape=umlActor;verticalLabelPosition=top;verticalAlign=bottom;html=1;labelPosition=center;align=center;" vertex="1" parent="1">
          <mxGeometry x="65" y="660" width="30" height="60" as="geometry" />
        </mxCell>
        <mxCell id="eHNHMJzHXt_tSUFujhMh-29" value="Administrador de sistema" style="shape=umlActor;verticalLabelPosition=top;verticalAlign=bottom;html=1;labelPosition=center;align=center;" vertex="1" parent="1">
          <mxGeometry x="355" y="660" width="30" height="60" as="geometry" />
        </mxCell>
        <mxCell id="eHNHMJzHXt_tSUFujhMh-31" value="" style="html=1;verticalAlign=bottom;endArrow=block;curved=0;rounded=0;" edge="1" parent="1" target="eHNHMJzHXt_tSUFujhMh-30">
          <mxGeometry x="-0.1625" width="80" relative="1" as="geometry">
            <mxPoint x="369.5" y="340" as="sourcePoint" />
            <mxPoint x="609.5" y="340" as="targetPoint" />
            <mxPoint as="offset" />
          </mxGeometry>
        </mxCell>
        <mxCell id="eHNHMJzHXt_tSUFujhMh-30" value="" style="html=1;points=[[0,0,0,0,5],[0,1,0,0,-5],[1,0,0,0,5],[1,1,0,0,-5]];perimeter=orthogonalPerimeter;outlineConnect=0;targetShapes=umlLifeline;portConstraint=eastwest;newEdgeStyle={&quot;curved&quot;:0,&quot;rounded&quot;:0};" vertex="1" parent="1">
          <mxGeometry x="605" y="340" width="10" height="20" as="geometry" />
        </mxCell>
        <mxCell id="eHNHMJzHXt_tSUFujhMh-33" value="" style="html=1;points=[[0,0,0,0,5],[0,1,0,0,-5],[1,0,0,0,5],[1,1,0,0,-5]];perimeter=orthogonalPerimeter;outlineConnect=0;targetShapes=umlLifeline;portConstraint=eastwest;newEdgeStyle={&quot;curved&quot;:0,&quot;rounded&quot;:0};" vertex="1" parent="1">
          <mxGeometry x="605" y="430" width="10" height="20" as="geometry" />
        </mxCell>
      </root>
    </mxGraphModel>
  </diagram>
</mxfile>
